<svg xmlns="http://www.w3.org/2000/svg" viewBox="0 0 195.56 195.55"><defs><style>.cls-1{fill:#fff;opacity:0.2;}</style></defs><title>check</title><g id="Layer_2" data-name="Layer 2"><g id="Layer_1-2" data-name="Layer 1"><path class="cls-1" d="M155.56,0H40A40,40,0,0,0,0,40V155.55a40,40,0,0,0,40,40H155.56a40,40,0,0,0,40-40V40A40,40,0,0,0,155.56,0Zm15,49.62L119.53,158a21.49,21.49,0,0,1-28.89,10.14L30,138.46a21.49,21.49,0,1,1,18.9-38.61l41,20.08L131.7,31.3a21.49,21.49,0,1,1,38.88,18.32Z"/></g></g></svg>