<svg xmlns="http://www.w3.org/2000/svg" viewBox="0 0 156.99 476.85"><defs><style>.cls-1{fill:#fff;}</style></defs><title>collins</title><g id="Layer_2" data-name="Layer 2"><g id="Layer_1-2" data-name="Layer 1"><path class="cls-1" d="M86.56,90l-.95-14L81.14,90H79.35L70.19,52l-5.9,16.31L48.15,22.74l-4.75,21L16.65,0,27.17,51.32,13.88,43,32.29,82.25l-15.88-6.1L24.67,89.7l-21.8-.11L0,476.83l157,0V90.37ZM20.13,143.68l46.52-11.33a4.14,4.14,0,0,1,5,3L83,181.91a4.14,4.14,0,0,1-3,5L33.42,198.24a4.14,4.14,0,0,1-5-3L17.09,148.68A4.14,4.14,0,0,1,20.13,143.68Zm19.63,192L15.82,294.18a4.14,4.14,0,0,1,1.52-5.65L58.8,264.58a4.14,4.14,0,0,1,5.66,1.52l23.94,41.46a4.14,4.14,0,0,1-1.52,5.66L45.41,337.16A4.14,4.14,0,0,1,39.76,335.64Zm102.43,26.47L126.38,407.3a4.14,4.14,0,0,1-5.27,2.54L75.91,394a4.14,4.14,0,0,1-2.54-5.27l15.81-45.19A4.14,4.14,0,0,1,94.46,341l45.19,15.81A4.14,4.14,0,0,1,142.19,362.11Zm2.2-140.63-15.81,45.19a4.14,4.14,0,0,1-5.27,2.54L78.12,253.4a4.14,4.14,0,0,1-2.54-5.27l15.81-45.19a4.14,4.14,0,0,1,5.27-2.54l45.19,15.81A4.14,4.14,0,0,1,144.4,221.48Z"/></g></g></svg>