<svg xmlns="http://www.w3.org/2000/svg" viewBox="0 0 319.23 279.39">
    <defs>
        <style>
            .cls-1 {
                fill: none;
                stroke: #fff;
                stroke-linejoin: round;
                stroke-width: 50px;
            }

            .cls-2 {
                fill: #f2f2f2;
                opacity: 0.1;
            }

        </style>
    </defs>
    <title>heart</title>
    <g id="Layer_2" onClick="" data-name="Layer 2">
        <g id="Layer_1-2" data-name="Layer 1">
            <path class="cls-1" d="M240.91,29.91a81,81,0,0,0-81.48,15.52A81,81,0,0,0,29.91,134.05c25.61,70.36,130,120.33,130,120.33s104.43-52,129.42-120.66A81,81,0,0,0,240.91,29.91Z" />
            <path class="cls-2" d="M240.91,29.91a81,81,0,0,0-81.48,15.52A81,81,0,0,0,29.91,134.05c25.61,70.36,130,120.33,130,120.33s104.43-52,129.42-120.66A81,81,0,0,0,240.91,29.91Z" />
        </g>
    </g>
</svg>
