<svg xmlns="http://www.w3.org/2000/svg" viewBox="0 0 1733.49 1733.49" width="100" height="auto"><defs><style>.cls-1,.cls-4,.cls-5{fill:#fff;}.cls-1,.cls-2,.cls-3{stroke:#fff;stroke-linecap:round;}.cls-1{stroke-linejoin:round;}.cls-1,.cls-2{stroke-width:45px;}.cls-2,.cls-3{fill:none;stroke-miterlimit:10;}.cls-3{stroke-width:70px;}.cls-4{font-size:367.44px;font-family:GothamRounded-Medium, Gotham Rounded;}</style></defs><title>Batch Logo</title><g id="Layer_2" data-name="Layer 2"><g id="Layer_1-2" data-name="Layer 1"><path class="cls-1" d="M964.95,728.54a98.2,98.2,0,1,1-196.4,0c0-93.79,98.2-191,98.2-191S964.95,637.76,964.95,728.54Z"/><path class="cls-2" d="M47.5,936.73c82,0,82,59.75,164.1,59.75s82-59.75,164.1-59.75,82,59.75,164.1,59.75,82-59.75,164.1-59.75,82,59.75,164.1,59.75,82-59.75,164.1-59.75,82.05,59.75,164.1,59.75,82-59.75,164.1-59.75,82.05,59.75,164.11,59.75,82.05-59.75,164.11-59.75"/><circle class="cls-3" cx="866.74" cy="866.74" r="831.74"/><text class="cls-4" transform="translate(416.88 742.09) rotate(-57.95)">B</text><text class="cls-4" transform="translate(536.39 533.33) rotate(-27.17)">A</text><text class="cls-4" transform="matrix(1, -0.01, 0.01, 1, 738.86, 421.14)">T</text><text class="cls-4" transform="matrix(0.9, 0.44, -0.44, 0.9, 940.66, 404.95)">C</text><text class="cls-4" transform="translate(1165.13 505.44) rotate(56.83)">H</text><path class="cls-5" d="M137.89,944.65S68.76,893.87,76,764.77L45,946.65Z"/><path class="cls-5" d="M557.57,1213.52H499.9v103.72H559c37.32,0,59.13-22.29,59.13-51.37v-1C618.16,1231.46,594.89,1213.52,557.57,1213.52Z"/><path class="cls-5" d="M1624.44,966.6l-105,28.46-85.17-28.46-100.65-31.16-78.21,53.94-65.3,5.68-59.62-14.19L1051,946.65l-59.41,1.79L892,995.07l-71-5.68L701.76,946.65,627.94,966.6l-90.85,39.82L450.87,966.6l-81.28-19.95L310,966.6l-59.62,22.79-76.65,5.68L35,921.25c94.1,792.09,831.74,777.23,831.74,777.23,744.15,0,831.74-777.23,831.74-777.23ZM693.76,1264.41c0,78.52-61.07,119.23-137.16,119.23H499.9V1451a37.32,37.32,0,0,1-74.64,0V1183.47a37,37,0,0,1,37.32-37.32H563.87c80.94,0,129.89,48,129.89,117.29Zm268,221H786.34A37,37,0,0,1,749,1448.1V1180.57a37.32,37.32,0,1,1,74.64,0v237H961.78a33.93,33.93,0,0,1,0,67.85Zm362.53-304.85c0,13.09-4.85,24.23-13.57,34.9L1134.8,1420h156.55a33.31,33.31,0,0,1,33,33c0,17.93-15,32.47-33,32.47H1068.89a33.31,33.31,0,0,1-33-33V1451c0-13.09,4.85-24.72,13.57-34.9l175.93-204.53H1074.71c-17.93,0-33-14.54-33-32.47a33.31,33.31,0,0,1,33-33h216.64a33.31,33.31,0,0,1,33,33Z"/></g></g></svg>
