<svg xmlns="http://www.w3.org/2000/svg" viewBox="0 0 1226.35 1226.35" width="100" height="auto">
    <defs>
        <style>
            .cls-1,
            .cls-3 {
                fill: #fff;
            }

            .cls-1,
            .cls-2,
            .cls-4 {
                stroke: #fff;
            }

            .cls-1,
            .cls-2,
            .cls-4,
            .cls-6 {
                stroke-linecap: round;
            }

            .cls-1 {
                stroke-linejoin: round;
                stroke-width: 31.41px;
            }

            .cls-2,
            .cls-4,
            .cls-6 {
                fill: none;
                stroke-miterlimit: 10;
            }

            .cls-2 {
                stroke-width: 49.52px;
            }

            .cls-4,
            .cls-6 {
                stroke-width: 31.84px;
            }

            .cls-5 {
                opacity: 0.2;
            }

            .cls-6 {
                stroke: white;
            }
        </style>
    </defs>
    <title>logo</title>
    <g id="Layer_2" data-name="Layer 2">
        <g id="Layer_1-2" data-name="Layer 1">
            <g id="waves">
                <path id="drip" class="cls-1" d="M680.08,509.42a68.54,68.54,0,1,1-137.09,0c0-65.47,68.54-133.31,68.54-133.31S680.08,446.05,680.08,509.42Z" />
                <circle class="cls-2" cx="613.17" cy="613.17" r="588.41" />
                <path class="cls-3" d="M166.8,417.09a15.87,15.87,0,0,1-5.11-22.21l34.76-55.52c11-17.63,24.57-28.47,38.91-31.77,11.11-2.55,21.69-.84,32,5.65l.44.28c18.51,11.59,21.8,28.37,20.57,43.55,17.48-14.2,35.7-20.28,56.63-7.17l.44.28c27.54,17.24,28.09,49.18,6.57,83.55l-36.14,57.72a15.87,15.87,0,0,1-22.21,5.11ZM258,385.56c10.9-17.41,11.38-33.36-2.72-42.19l-.44-.28c-12.12-7.59-25.68-2.58-36.58,14.82l-24.42,39,41,25.66Zm70.18,32.9c11.59-18.51,11.35-34.3-2.53-43l-.44-.28c-13-8.14-27.19-2.61-40.58,18.76l-26.9,43L300,463.41Z" />
                <path class="cls-3" d="M381.53,352.86l-8.72-165c-.44-8.83,3.08-16.19,11.18-20.35l1.39-.71c8.09-4.15,15.9-2.61,22.82,2.9L537.17,273a13.93,13.93,0,0,1,4.71,5.18,15,15,0,0,1-6.41,20.53c-6.71,3.44-13.35,1.88-19-2.82l-28.73-23.53L409.13,312.7l2.38,38.22A15.38,15.38,0,0,1,403,366.71,14.65,14.65,0,0,1,383,360.29,16.37,16.37,0,0,1,381.53,352.86Zm82.42-100.15-62-50.85,5.15,80Z" />
                <path class="cls-3" d="M588.64,144.65l-44.19.63a14.82,14.82,0,1,1-.42-29.63l120.86-1.72a14.82,14.82,0,0,1,.42,29.63l-44.45.63,2,137.76a16.12,16.12,0,0,1-32.23.46Z" />
                <path class="cls-3" d="M718.84,211.88l.23-.47c22.66-46.5,76-67.63,125.58-43.49,25.24,12.3,38.19,27.86,47.09,45.79a16,16,0,0,1,0,14.18,16,16,0,0,1-28.37.06c-6.78-14.58-16.2-26.11-31.85-33.74-31.08-15.14-66.51-.6-82.11,31.42l-.23.47c-15.6,32-5.57,69,25.74,84.26,17.29,8.43,31.71,8.51,48.52,4.27a14.55,14.55,0,0,1,10.24.94c7.24,3.53,10.59,12.68,7.06,19.92a15.36,15.36,0,0,1-9.68,8c-22,6-43.65,5.91-70.06-7C713.37,313.31,696,258.85,718.84,211.88Z" />
                <path class="cls-3" d="M977.14,285.52a16,16,0,0,1,17.49,26.76L943.51,345.7,991,418.37l51.13-33.42a16,16,0,0,1,17.49,26.76L931.7,495.34a16,16,0,0,1-17.49-26.76l52-34-47.5-72.67-52,34a16,16,0,0,1-17.49-26.76Z" />
                <path class="cls-3" d="M394.45,858.5h-40.8v73.38h41.83c26.4,0,41.83-15.77,41.83-36.34v-.69C437.31,871.19,420.85,858.5,394.45,858.5Z" />
                <path class="cls-3" d="M1149.2,683.82,1074.89,704l-60.25-20.14-71.21-22L888.1,699.94l-46.19,4-42.18-10-56.24-24.21-42,1.26L631,704l-50.21-4-84.36-30.23-52.22,14.11L380,712l-61-28.17-57.5-14.11-42.18,14.11-42.18,16.12-54.23,4L24.76,651.74c66.57,560.36,588.41,549.85,588.41,549.85,526.45,0,588.41-549.85,588.41-549.85ZM490.8,894.5c0,55.55-43.2,84.35-97,84.35H353.65v47.66a26.4,26.4,0,0,1-52.8,0V837.24a26.2,26.2,0,0,1,26.4-26.4h71.66c57.26,0,91.89,33.94,91.89,83Zm189.61,156.35H556.29a26.2,26.2,0,0,1-26.4-26.4V835.19a26.4,26.4,0,0,1,52.8,0v167.67h97.72a24,24,0,1,1,0,48ZM936.88,835.19c0,9.26-3.43,17.14-9.6,24.69L802.81,1004.57H913.56a23.56,23.56,0,0,1,23.32,23.32,23.27,23.27,0,0,1-23.32,23H756.18a23.56,23.56,0,0,1-23.32-23.32v-1c0-9.26,3.43-17.49,9.6-24.69L866.93,857.13H760.3a23.27,23.27,0,0,1-23.32-23,23.56,23.56,0,0,1,23.32-23.32H913.56a23.56,23.56,0,0,1,23.32,23.32Z" />
                <path class="cls-4" d="M34.6,662.68c58,0,58,42.27,116.09,42.27s58-42.27,116.09-42.27S324.83,705,382.87,705s58-42.27,116.09-42.27S557,705,615,705s58-42.27,116.09-42.27S789.19,705,847.23,705s58-42.27,116.09-42.27,58,42.27,116.1,42.27,58-42.27,116.1-42.27" />
                <path class="cls-3" d="M98.55,668.29S49.65,632.37,54.75,541L32.84,669.71Z" />
                <path class="cls-3" d="M1129.75,669.55s48.9-35.93,43.79-127.26L1195.46,671Z" />
                <circle class="cls-2" cx="613.17" cy="613.17" r="588.41" />
                <g class="cls-5">
                    <path class="cls-6" d="M34.6,662.68c58,0,58,42.27,116.09,42.27s58-42.27,116.09-42.27S324.83,705,382.87,705s58-42.27,116.09-42.27S557,705,615,705s58-42.27,116.09-42.27S789.19,705,847.23,705s58-42.27,116.09-42.27,58,42.27,116.1,42.27,58-42.27,116.1-42.27" />
                    <path class="cls-3" d="M98.55,668.29S49.65,632.37,54.75,541L2.43,602.93l4,72.63,33,27.58c-3.6-13-.86-26.72,7.79-35.43C59.42,655.4,82.08,654.51,98.55,668.29Z" />
                    <path class="cls-3" d="M1129.75,669.55s48.9-35.93,43.79-127.26L1224.8,604l-2.34,61.45-9.8,34.92a74.82,74.82,0,0,0-82.92-30.76Z" />
                </g>
            </g>
            <path class="cls-4" d="M34.6,678.68c58,0,58,42.27,116.09,42.27s58-42.27,116.09-42.27S324.83,721,382.87,721s58-42.27,116.09-42.27S557,721,615,721s58-42.27,116.09-42.27S789.19,721,847.23,721s58-42.27,116.09-42.27,58,42.27,116.1,42.27,58-42.27,116.1-42.27" />
        </g>
    </g>
</svg>
