<svg xmlns="http://www.w3.org/2000/svg" viewBox="0 0 1226.35 1226.35"><defs><style>.cls-1,.cls-3,.cls-4{fill:#fff;}.cls-1,.cls-2,.cls-5{stroke:#fff;stroke-linecap:round;}.cls-1{stroke-linejoin:round;stroke-width:31.41px;}.cls-2,.cls-5{fill:none;stroke-miterlimit:10;}.cls-2{stroke-width:49.52px;}.cls-3{font-size:259.94px;font-family:GothamRounded-Medium, Gotham Rounded;}.cls-5{stroke-width:31.84px;}</style></defs><title>batchlogo</title><g id="Layer_2" data-name="Layer 2"><g id="Layer_1-2" data-name="Layer 1"><g id="waves"><path id="drip" class="cls-1" d="M680.08,469.42a68.54,68.54,0,1,1-137.09,0c0-65.47,68.54-133.31,68.54-133.31S680.08,406.05,680.08,469.42Z"/><circle class="cls-2" cx="613.17" cy="613.17" r="588.41"/><text class="cls-3" transform="matrix(0.53, -0.85, 0.85, 0.53, 294.95, 524.94)">B</text><text class="cls-3" transform="translate(379.47 377.3) rotate(-27.17)">A</text><text class="cls-3" transform="translate(522.7 297.93) rotate(-0.81)">T</text><text class="cls-3" transform="matrix(0.9, 0.44, -0.44, 0.9, 665.43, 286.49)">C</text><text class="cls-3" transform="translate(824.22 357.53) rotate(56.83)">H</text><path class="cls-4" d="M394.45,858.5h-40.8v73.38h41.83c26.4,0,41.83-15.77,41.83-36.34v-.69C437.31,871.19,420.85,858.5,394.45,858.5Z"/><path class="cls-4" d="M1149.2,683.82,1074.89,704l-60.25-20.14-71.21-22L888.1,699.94l-46.19,4-42.18-10-56.24-24.21-42,1.26L631,704l-50.21-4-84.36-30.23-52.22,14.11L380,712l-61-28.17-57.5-14.11-42.18,14.11-42.18,16.12-54.23,4L24.76,651.74c66.57,560.36,588.41,549.85,588.41,549.85,526.45,0,588.41-549.85,588.41-549.85ZM490.8,894.5c0,55.55-43.2,84.35-97,84.35H353.65v47.66a26.4,26.4,0,0,1-52.8,0V837.24a26.2,26.2,0,0,1,26.4-26.4h71.66c57.26,0,91.89,33.94,91.89,83Zm189.61,156.35H556.29a26.2,26.2,0,0,1-26.4-26.4V835.19a26.4,26.4,0,0,1,52.8,0v167.67h97.72a24,24,0,1,1,0,48ZM936.88,835.19c0,9.26-3.43,17.14-9.6,24.69L802.81,1004.57H913.56a23.56,23.56,0,0,1,23.32,23.32,23.27,23.27,0,0,1-23.32,23H756.18a23.56,23.56,0,0,1-23.32-23.32v-1c0-9.26,3.43-17.49,9.6-24.69L866.93,857.13H760.3a23.27,23.27,0,0,1-23.32-23,23.56,23.56,0,0,1,23.32-23.32H913.56a23.56,23.56,0,0,1,23.32,23.32Z"/><path class="cls-5" d="M34.6,662.68c58,0,58,42.27,116.09,42.27s58-42.27,116.09-42.27S324.83,705,382.87,705s58-42.27,116.09-42.27S557,705,615,705s58-42.27,116.09-42.27S789.19,705,847.23,705s58-42.27,116.09-42.27,58,42.27,116.1,42.27,58-42.27,116.1-42.27"/><path class="cls-4" d="M98.55,668.29S49.65,632.37,54.75,541L32.84,669.71Z"/><path class="cls-4" d="M1129.75,669.55s48.9-35.93,43.79-127.26L1195.46,671Z"/><circle class="cls-2" cx="613.17" cy="613.17" r="588.41"/></g><path class="cls-5" d="M34.6,662.68c58,0,58,42.27,116.09,42.27s58-42.27,116.09-42.27S324.83,705,382.87,705s58-42.27,116.09-42.27S557,705,615,705s58-42.27,116.09-42.27S789.19,705,847.23,705s58-42.27,116.09-42.27,58,42.27,116.1,42.27,58-42.27,116.1-42.27"/></g></g></svg>
