<svg xmlns="http://www.w3.org/2000/svg" width="500px" height="auto" viewBox="0 0 1310 1310"><defs><style>.cls-1{fill:rgba(255,255,255,0.05);}</style></defs><title>pattern</title><g id="Layer_2" data-name="Layer 2"><g id="Layer_1-2" data-name="Layer 1"><path class="cls-1" d="M63.51,232.54l149.1,84.74a20,20,0,0,0,27.27-7.51L347.73,120,163.86,15.49,56,205.27A20,20,0,0,0,63.51,232.54Zm31.38-6.21L136,130.24a3.14,3.14,0,0,1,4.12-1.65l96.1,41.08a3.14,3.14,0,0,1,1.65,4.12l-41.08,96.1a3.14,3.14,0,0,1-4.12,1.65l-96.1-41.08A3.14,3.14,0,0,1,94.89,226.34Z"/><polygon class="cls-1" points="836.24 841.52 835.43 939.47 885.42 957.36 946.94 881.13 836.24 841.52"/><path class="cls-1" d="M1107.17,683.06,1069.84,623,866.45,749.36l37.33,60.08a119.76,119.76,0,0,0,146,48.08l111,178.67-52.37,32.54a37,37,0,0,0-11.88,50.88l2.8,4.51L1302.7,997.74l-2.8-4.51A37,37,0,0,0,1249,981.34l-52.37,32.54-111-178.66A119.76,119.76,0,0,0,1107.17,683.06ZM1037,842.92a23.46,23.46,0,1,1,7.54-32.31A23.46,23.46,0,0,1,1037,842.92Z"/><path class="cls-1" d="M319.56,752.4l-40.12,13.51L233.33,629a82.24,82.24,0,0,0,38.32-98.31l-15.51-46L100.33,537.19l15.51,46a82.24,82.24,0,0,0,90,55.09l46.11,136.88L211.83,788.7a25.37,25.37,0,0,0-15.94,32.14l1.16,3.46L352.87,771.8l-1.16-3.46A25.37,25.37,0,0,0,319.56,752.4ZM199.62,626.54a16.11,16.11,0,1,1,10.12-20.41A16.11,16.11,0,0,1,199.62,626.54Z"/><path class="cls-1" d="M1170.28,1206.82l-9.84,27.85,81.35,28.74,9.84-27.85a43,43,0,0,0-26.24-54.92,43,43,0,0,0,54.92-26.24l14.4-40.77-81.35-28.74-14.4,40.76a43,43,0,0,0,26.24,54.92A43,43,0,0,0,1170.28,1206.82Z"/><polygon class="cls-1" points="277.54 918.16 312.17 1082.37 312.17 1082.37 277.54 1183.14 403.81 1183.14 369.19 1082.37 369.19 1082.37 403.81 918.16 277.54 918.16"/><path class="cls-1" d="M1071.25,359.72h0l-48.61-23.5h0L756.39,207.52h0L738,198.65a65.49,65.49,0,0,0-87.47,30.46l-61.38,127a65.49,65.49,0,0,0,30.46,87.47L638,452.44,518.18,700.32,754.41,814.5A33.36,33.36,0,0,0,799,799L999.15,384.83h0A54,54,0,0,0,1071.25,359.72ZM661.5,403.83,647.37,397a16.37,16.37,0,0,1-7.62-21.87L696.9,256.92a16.37,16.37,0,0,1,21.87-7.62l14.12,6.83Z"/><path class="cls-1" d="M14.41,1163.35a38.21,38.21,0,0,0,24,48.4l11,3.7L250.9,1283.3a3.55,3.55,0,0,1,2.23,4.5l-.48,1.42a3.55,3.55,0,0,1-4.5,2.23l-6.22-2.09a6,6,0,0,0-7.54,3.74h0a6,6,0,0,0,3.74,7.54l9.58,3.23h0a11.91,11.91,0,0,0,15.08-7.48h0l2.74-8.15h0a11.91,11.91,0,0,0-7.48-15.08h0l-204.85-69L73.79,1143l-11-3.7a38.21,38.21,0,0,0-48.4,24Z"/><path class="cls-1" d="M21.92,942.87l25.69,55.23a28.28,28.28,0,0,0,37.57,13.71l8-3.71,50.15,107.8L246,1068.1a14.4,14.4,0,0,0,7-19.14L169.24,868.86h0a23.31,23.31,0,0,0,11.31-31h0l-21.14,9.83h0L43.61,901.58h0l-8,3.71A28.28,28.28,0,0,0,21.92,942.87ZM47.3,925.58l6.14-2.86L83.33,987l-6.14,2.86a7.07,7.07,0,0,1-9.39-3.43L43.88,935A7.07,7.07,0,0,1,47.3,925.58Z"/><polygon class="cls-1" points="835.43 939.47 785.96 982.06 896.65 1021.67 885.42 957.36 835.43 939.47"/><polygon class="cls-1" points="926.51 1154.48 934.92 1140.68 921.4 1150.88 920.92 1150.54 936.15 1112.16 921.93 1122.08 935 1075.55 919.02 1089.95 922.36 1038.81 901.38 1086.81 895.33 1072.33 887.74 1115.04 878.28 1100.91 877.03 1119.59 866.78 1112.36 727.39 1310 913.01 1310 990.73 1199.81 926.51 1154.48"/><path class="cls-1" d="M751,986.86,672.89,840.14,530.74,915.86l78.15,146.72a15.23,15.23,0,0,0,20.6,6.28l115.27-61.4A15.23,15.23,0,0,0,751,986.86Zm-43.85,14.81-65.59,45.08a2.39,2.39,0,0,1-3.32-.61l-45.08-65.59a2.39,2.39,0,0,1,.62-3.32l65.59-45.08a2.39,2.39,0,0,1,3.32.61l45.08,65.59A2.39,2.39,0,0,1,707.19,1001.67Z"/><path class="cls-1" d="M0,385.55A38.2,38.2,0,0,0,38.91,373a38.2,38.2,0,0,0,4.92,53.8L64,443.57l49-58.86L92.82,367.94A38.2,38.2,0,0,0,39,372.86a38.2,38.2,0,0,0-4.92-53.8L4.61,294.51,0,300"/><polyline class="cls-1" points="0 766.19 41.99 808.19 149.28 700.95 0 551.64"/><line class="cls-1" y1="1310" y2="1310"/><path class="cls-1" d="M586.3,1274.28,422.17,682.07a10.26,10.26,0,0,1,7.15-12.63l4.17-1.16a10.26,10.26,0,0,1,12.63,7.15l5.07,18.28a17.21,17.21,0,0,0,21.18,12h0a17.21,17.21,0,0,0,12-21.18l-7.81-28.17h0a34.42,34.42,0,0,0-42.36-24h0L410.24,639h0a34.42,34.42,0,0,0-24,42.36h0l166.87,602.09L457.4,1310H596.13c-.28-1.15-.57-2.3-.89-3.45Z"/><polygon class="cls-1" points="1143.88 496.65 1131.71 486.02 1139.46 501.08 1139.05 501.49 1103.82 479.94 1111.17 495.64 1067.54 474.84 1079.02 493.04 1029.19 481.03 1072.92 509.89 1057.61 513.38 1098.41 528.14 1082.87 535.05 1101.06 539.47 1092.19 548.33 1310 766.19 1310 551.64 1199.49 441.1 1143.88 496.65"/><path class="cls-1" d="M1295.11,377.91a38,38,0,0,0,14.89,7.63V300l-44.38,53.32Z"/><path class="cls-1" d="M1079,109.85,1051.82,49a22.49,22.49,0,0,0,11.37-29.7l-20.54,9.16L895,94.31l71.15,159.43,69.62-31.07A85.43,85.43,0,0,0,1079,109.85Z"/><path class="cls-1" d="M1212.12,348.07l65.72-252.2L1177.4,69.15l-67.72,252.22Zm9.85-77.39-18,26.8a2.79,2.79,0,0,1-3.87.76l-26.8-18a2.79,2.79,0,0,1-.76-3.87l18-26.8a2.79,2.79,0,0,1,3.87-.76l26.8,18A2.79,2.79,0,0,1,1222,270.68Zm-2.21-113.27,26.8,18a2.79,2.79,0,0,1,.76,3.87l-18,26.8a2.79,2.79,0,0,1-3.87.76l-26.8-18a2.79,2.79,0,0,1-.76-3.87l18-26.8A2.79,2.79,0,0,1,1219.76,157.4Zm-43.13-47.28a2.79,2.79,0,0,1,2.84-2.75l32.28.52a2.79,2.79,0,0,1,2.75,2.84L1214,143a2.79,2.79,0,0,1-2.84,2.75l-32.28-.52a2.79,2.79,0,0,1-2.75-2.84ZM1153,201.43l31.13-8.57a2.79,2.79,0,0,1,3.43,2l8.57,31.13a2.79,2.79,0,0,1-2,3.43l-31.13,8.57a2.79,2.79,0,0,1-3.43-2l-8.57-31.13A2.79,2.79,0,0,1,1153,201.43Z"/><path class="cls-1" d="M532.73,188.55,380.15,166.79,324.58,550,480.1,571.43ZM458,289.33l42.62,21.82a4.14,4.14,0,0,1,1.8,5.57l-21.82,42.62a4.14,4.14,0,0,1-5.57,1.8l-42.62-21.82a4.14,4.14,0,0,1-1.8-5.57l21.82-42.62A4.14,4.14,0,0,1,458,289.33Zm-68.09-66.61,47.63-4.89a4.14,4.14,0,0,1,4.54,3.7l4.89,47.63a4.14,4.14,0,0,1-3.7,4.54l-47.63,4.89a4.14,4.14,0,0,1-4.54-3.7l-4.89-47.63A4.14,4.14,0,0,1,389.89,222.72Zm-6.7,192.85-18.07-44.34a4.14,4.14,0,0,1,2.27-5.4l44.34-18.07a4.14,4.14,0,0,1,5.4,2.27l18.07,44.34a4.14,4.14,0,0,1-2.27,5.4l-44.34,18.07A4.14,4.14,0,0,1,383.19,415.57Zm70.49,84.58-42.62-21.82a4.14,4.14,0,0,1-1.8-5.57l21.82-42.62a4.14,4.14,0,0,1,5.57-1.8l42.62,21.82a4.14,4.14,0,0,1,1.8,5.57l-21.82,42.62A4.14,4.14,0,0,1,453.67,500.16Z"/><path class="cls-1" d="M382.41,55.54a110.43,110.43,0,0,0,135.91,76.93h0A110.43,110.43,0,0,0,596.13,0H457.4L373.46,23.26Z"/><polygon class="cls-1" points="778.96 190.08 913.01 0 727.39 0 655 102.64 778.96 190.08"/></g></g></svg>
