<svg xmlns="http://www.w3.org/2000/svg" viewBox="0 0 485.46 485.46"><defs><style>.cls-1{fill:#fff;}</style></defs><title>rocks_1</title><g id="Layer_2" data-name="Layer 2"><g id="Layer_1-2" data-name="Layer 1"><path class="cls-1" d="M0,0V445.46a40,40,0,0,0,40,40H445.46a40,40,0,0,0,40-40V0ZM459.26,399.07a69.56,69.56,0,0,1-69.56,69.56H92.15a69.56,69.56,0,0,1-69.56-69.56V146.25H52.69l-3.32-31.58,302-31.74L358,146.25H459.26Z"/><path class="cls-1" d="M110.94,413.55l242.33-25.47a30,30,0,0,0,26.7-33L358,146.25H52.69L78,386.85A30,30,0,0,0,110.94,413.55Z"/></g></g></svg>
